<svg t="1756740571643" class="icon" viewBox="0 0 1024 1024" version="1.1" xmlns="http://www.w3.org/2000/svg" p-id="12355" width="256" height="256"><path d="M0 0h1024v1024H0V0z" fill="#202425" opacity=".01" p-id="12356"></path><path d="M68.266667 238.933333a136.533333 136.533333 0 0 1 136.533333-136.533333h614.4a136.533333 136.533333 0 0 1 136.533333 136.533333v546.133334a136.533333 136.533333 0 0 1-136.533333 136.533333H204.8a136.533333 136.533333 0 0 1-136.533333-136.533333V238.933333z" fill="#FF7744" p-id="12357"></path><path d="M170.666667 512a102.4 102.4 0 0 1 102.4-102.4h477.866666a102.4 102.4 0 0 1 102.4 102.4v204.8a102.4 102.4 0 0 1-102.4 102.4H273.066667a102.4 102.4 0 0 1-102.4-102.4v-204.8z" fill="#FFAA44" p-id="12358"></path><path d="M636.347733 643.345067a34.133333 34.133333 0 0 0 0-57.890134l-174.523733-109.090133a34.133333 34.133333 0 0 0-52.224 28.945067v218.180266a34.133333 34.133333 0 0 0 52.224 28.945067l174.523733-109.090133z" fill="#FFFFFF" p-id="12359"></path><path d="M273.066667 187.733333A51.2 51.2 0 0 1 324.266667 238.933333v34.133334a51.2 51.2 0 1 1-102.4 0V238.933333A51.2 51.2 0 0 1 273.066667 187.733333z m238.933333 0A51.2 51.2 0 0 1 563.2 238.933333v34.133334a51.2 51.2 0 0 1-102.4 0V238.933333A51.2 51.2 0 0 1 512 187.733333z m238.933333 0A51.2 51.2 0 0 1 802.133333 238.933333v34.133334a51.2 51.2 0 0 1-102.4 0V238.933333A51.2 51.2 0 0 1 750.933333 187.733333z" fill="#FFFFFF" p-id="12360"></path></svg>